<svg height="48" viewBox="0 0 48 48" width="48" xmlns="http://www.w3.org/2000/svg"><g fill="none" transform="translate(4 4)"><path d="m6.67642919 34.9161087c-4.09732861-3.6624067-6.67642919-8.9880671-6.67642919-14.9161087 0-11.045695 8.954305-20 20-20s20 8.954305 20 20c0 5.9372931-2.5871569 11.2703234-6.6956236 14.9332436-2.3129206-2.3657557-8.9531791-3.7927952-9.8043764-3.9332436-.7402902-.1221528-.5-2-.5-2s2.1287277-2.3990972 2.6028348-5.4020833c1.2753348 0 2.1727679-3.2246528.8971652-4.3479167 0-1.25 1.5-9.25-6.5-9.25s-6.5 8-6.5 9.25c-1.2754687 1.1232639-.2754018 4.25 1 4.25.4740402 3.0029861 2.5 5.5 2.5 5.5s.2402902 1.8778472-.5 2c-1.7296432.2854009-7.67109783 1.5948679-9.82357081 3.9161087z" fill="#ff8700"/><path d="m11.4197662 32.3052336c-3.88107237-2.7112573-6.4197662-7.2117736-6.4197662-12.3052336 0-8.2842712 6.7157288-15 15-15s15 6.7157288 15 15c0 5.1239938-2.5692225 9.6479135-6.4897082 12.3537999-2.2998694-.8052964-4.5397214-1.2761553-5.0102918-1.3537999-.7402902-.1221528-.5-2-.5-2s2.1287277-2.3990972 2.6028348-5.4020833c1.2753348 0 2.1727679-3.2246528.8971652-4.3479167 0-1.25 1.5-9.25-6.5-9.25s-6.5 8-6.5 9.25c-1.2754687 1.1232639-.2754018 4.25 1 4.25.4740402 3.0029861 2.5 5.5 2.5 5.5s.2402902 1.8778472-.5 2c-.9126121.1505862-2.9977661.5862659-5.0802338 1.3052336z" fill="#ffb664"/></g></svg>