<svg xmlns="http://www.w3.org/2000/svg" width="24" height="24" viewBox="0 0 24 24">
  <g fill="none" fill-rule="evenodd">
    <path fill="#EB8B2D" d="M23.77125,12.3468108 L23.77125,12.3461622 C22.5041786,6.29135135 15.8056071,0.592756757 11.2125,0.0675675676 L11.2125,0.0692972973 C10.8394286,0.308108108 10.5293571,0.606378378 10.2783214,0.955567568 C12.9555,1.20605405 15.2916429,3.01221622 17.976,5.91243243 C20.0616429,8.16594595 21.4550357,11.7668108 21.7981071,15.5607568 C21.9340714,17.0612973 21.9064286,18.5923243 21.6949286,20.0831351 C23.8459286,17.7045405 24.3257143,14.9908108 23.77125,12.3468108"/>
    <path fill="#E15E36" d="M21.7981071,15.5607568 C21.9340714,17.0612973 21.9064286,18.5923243 21.6949286,20.0831351 C19.2497143,22.864 10.8110357,24.2405405 5.45475,23.8473514 L5.45475,23.8452973 C4.64582143,22.6833514 4.23407143,21.4007568 4.12982143,20.0568649 C10.9345714,21.3403243 18.2224286,19.2637838 21.7981071,15.5607568"/>
    <path fill="#0067A5" d="M16.6898571,6.85805405 C18.2604643,9.38086486 17.9441786,13.927027 16.1963571,16.5508108 L15.9728571,16.4949189 C14.79975,15.9923243 13.6103571,14.8276757 12.57225,13.3327568 C16.0782857,9.04151351 14.136,5.78151351 11.6828571,5.11372973 C10.9497857,4.91156757 10.1727857,4.94302703 9.48053571,5.24713514 C11.83575,4.11427027 14.9531786,4.26162162 16.6898571,6.85805405"/>
    <path fill="#929D25" d="M9.48053571,5.24713514 C10.1727857,4.94302703 10.9497857,4.91156757 11.6828571,5.11372973 C11.0660357,5.69589189 10.4209286,6.36616216 9.77989286,7.10572973 C9.62839286,6.47783784 9.52007143,5.85762162 9.45878571,5.25654054 L9.45878571,5.25481081 C9.46671429,5.252 9.47196429,5.24821622 9.48053571,5.24713514"/>
    <path fill="#58AFD6" d="M15.9728571,16.4949189 C14.79975,15.9923243 13.6103571,14.8276757 12.57225,13.3327568 C11.3290714,11.5468108 10.3015714,9.28237838 9.77989286,7.10572973 C9.62839286,6.47783784 9.52007143,5.85762162 9.45878571,5.25654054 L9.45878571,5.25481081 C9.28639286,3.55621622 9.50903571,2.02172973 10.2783214,0.955567568 C10.5293571,0.606378378 10.8394286,0.308108108 11.2125,0.0692972973 L11.2125,0.0675675676 C9.82360714,-0.0896216216 8.62532143,0.223243243 7.83107143,1.14594595 L7.82828571,1.14594595 C7.22507143,1.844 6.85125,2.88886486 6.79789286,4.34064865 C6.70039286,5.08367568 6.627,6.14291892 6.61382143,7.35437838 C6.60278571,8.53891892 6.65325,9.86486486 6.79971429,11.192 C7.35203571,16.2168649 9.29571429,21.2072432 14.6333571,18.0945946 C15.2379643,17.7405405 15.76275,17.2037838 16.1963571,16.5508108 L15.9728571,16.4949189"/>
    <path fill="#929D25" d="M4.12982143,20.0568649 C3.90557143,17.1762162 5.09614286,14.0153514 6.79971429,11.192 C6.65325,9.86486486 6.60278571,8.53891892 6.61382143,7.35437838 C3.81632143,9.97459459 0.453535714,15.0372973 0.0513214286,18.8549189 C-0.159107143,20.8450811 0.435857143,22.4948108 2.33871429,23.2833514 C3.13617857,23.5700541 4.21221429,23.7558919 5.45475,23.8473514 L5.45475,23.8452973 C4.64582143,22.6833514 4.23407143,21.4007568 4.12982143,20.0568649"/>
  </g>
</svg>
